<svg width="32" height="32" viewBox="0 0 32 32" fill="none" xmlns="http://www.w3.org/2000/svg">
<path d="M25.3333 13.333H6.66667C5.19391 13.333 4 14.5269 4 15.9997V26.6663C4 28.1391 5.19391 29.333 6.66667 29.333H25.3333C26.8061 29.333 28 28.1391 28 26.6663V15.9997C28 14.5269 26.8061 13.333 25.3333 13.333Z" stroke="#202020" stroke-width="2.2" stroke-linecap="round" stroke-linejoin="round"/>
<path d="M8 8C8 6.93913 8.42143 5.92172 9.17157 5.17157C9.92172 4.42143 10.9391 4 12 4H20C21.0609 4 22.0783 4.42143 22.8284 5.17157C23.5786 5.92172 24 6.93913 24 8V13.3333H8V8Z" stroke="#202020" stroke-width="2.2" stroke-linecap="round" stroke-linejoin="round"/>
</svg>
