<svg width="1100" height="720" viewBox="0 0 1100 720" fill="none" xmlns="http://www.w3.org/2000/svg">
<g opacity="0.4">
<path d="M0 681.475L100.505 596.905H0.928422V550.405H191.005V588.697L86.0795 673.04H191.934V719.998H0V681.475Z" fill="white"/>
<path d="M427.854 591.433H317.577V613.09H424.362V655.262H317.577V678.51H429.482V719.998H254.995V550.405H427.854V591.433Z" fill="white"/>
<path d="M553.491 719.998H492.305V550.403H556.283L649.577 645.233V550.403H710.764V719.998H650.506L553.491 622.205V719.998Z" fill="white"/>
<path d="M777.774 550.405H840.591V720H777.774V550.405Z" fill="white"/>
<path d="M898.756 597.132V550.404H1100V597.132H1030.67V719.998H968.083V597.132H898.756Z" fill="white"/>
<path d="M954.492 383.122H550.951L550.837 383.058L550.725 383.122H147.184L248.126 211.711L550.834 383.054L550.837 383.058L550.844 383.054L853.552 211.711L954.492 383.122ZM323.917 82.3976H775.863L803.823 130.447L550.681 273.541L296.323 129.506L323.917 82.3976ZM1099.91 213.046L1050.98 129.74H901.68L824.69 0H274.858L198.569 129.315H48.8578L0.0891852 211.974H149.905C100.077 296.649 50.2504 381.325 0.425105 465.998C366.702 466.053 732.978 466.107 1099.26 466.158C1049.68 381.79 1000.1 297.416 950.512 213.046H1099.91Z" fill="white"/>
</g>
</svg>
