<svg width="24" height="24" viewBox="0 0 24 24" fill="none" xmlns="http://www.w3.org/2000/svg">
<path d="M18.2591 8.23419L18.2527 8.24018L18.2465 8.24638L18.2454 8.24746L18.2453 8.24763L9.80293 16.6787L9.80292 16.6787C9.72088 16.7607 9.60969 16.8067 9.49375 16.8067C9.37784 16.8067 9.26667 16.7607 9.18464 16.6788C9.18462 16.6788 9.1846 16.6787 9.18458 16.6787L5.76099 13.2539C5.68678 13.1716 5.6465 13.0641 5.64845 12.9532C5.65045 12.8398 5.69637 12.7317 5.77653 12.6515C5.85668 12.5714 5.96483 12.5255 6.07817 12.5235C6.18914 12.5215 6.29661 12.5618 6.3789 12.636L9.14278 15.3986L9.49613 15.7518L9.8496 15.3988L17.6284 7.62875L17.6347 7.62242L17.6408 7.61586C17.6809 7.57288 17.7292 7.5384 17.7828 7.51449C17.8365 7.49058 17.8944 7.47772 17.9532 7.47668C18.0119 7.47565 18.0703 7.48645 18.1247 7.50846C18.1792 7.53046 18.2287 7.56321 18.2702 7.60476C18.3118 7.6463 18.3445 7.69579 18.3665 7.75026C18.3885 7.80474 18.3994 7.86309 18.3983 7.92183C18.3973 7.98058 18.3844 8.03851 18.3605 8.09218C18.3366 8.14584 18.3021 8.19414 18.2591 8.23419ZM2.29343 2.29343C2.96153 1.62533 3.86767 1.25 4.8125 1.25H19.1875C20.1323 1.25 21.0385 1.62533 21.7066 2.29343C22.3747 2.96153 22.75 3.86767 22.75 4.8125V19.1875C22.75 20.1323 22.3747 21.0385 21.7066 21.7066C21.0385 22.3747 20.1323 22.75 19.1875 22.75H4.8125C3.86767 22.75 2.96153 22.3747 2.29343 21.7066C1.62533 21.0385 1.25 20.1323 1.25 19.1875V4.8125C1.25 3.86767 1.62533 2.96153 2.29343 2.29343ZM4.8125 2.125C3.32886 2.125 2.125 3.32886 2.125 4.8125V19.1875C2.125 19.9003 2.40815 20.5838 2.91215 21.0878C3.41615 21.5919 4.09973 21.875 4.8125 21.875H19.1875C19.9003 21.875 20.5838 21.5919 21.0878 21.0878C21.5919 20.5838 21.875 19.9003 21.875 19.1875V4.8125C21.875 3.32886 20.6711 2.125 19.1875 2.125H4.8125Z" fill="black" stroke="black"/>
</svg>
