<svg width="14" height="12" viewBox="0 0 14 12" fill="none" xmlns="http://www.w3.org/2000/svg">
<path d="M4.15477 10.6488L4.06875 10.5627L3.75594 10.2498L2.755 9.24842L0.761041 7.25383C0.686832 7.17155 0.646548 7.06408 0.648506 6.95312C0.650506 6.83977 0.696421 6.73163 0.776578 6.65147C0.856737 6.57132 0.964879 6.5254 1.07822 6.5234C1.18919 6.52144 1.29666 6.56173 1.37895 6.63595L4.14283 9.39858L4.49618 9.75178L4.84966 9.3987L12.6284 1.6287L12.6347 1.62237L12.6409 1.61581C12.6809 1.57282 12.7292 1.53835 12.7829 1.51444C12.8365 1.49053 12.8945 1.47767 12.9532 1.47663C13.012 1.47559 13.0703 1.4864 13.1248 1.5084C13.1793 1.53041 13.2288 1.56316 13.2703 1.6047C13.3118 1.64625 13.3446 1.69574 13.3666 1.75021C13.3886 1.80468 13.3994 1.86303 13.3984 1.92178C13.3973 1.98052 13.3845 2.03846 13.3606 2.09212C13.3367 2.14579 13.3022 2.19409 13.2592 2.23414L13.2528 2.24012L13.2466 2.24633L13.2455 2.24741L13.2453 2.24758L4.80298 10.6787L4.80297 10.6787C4.72094 10.7606 4.60974 10.8066 4.4938 10.8066C4.378 10.8066 4.26693 10.7607 4.18492 10.679C4.18492 10.679 4.18491 10.6789 4.18491 10.6789C4.1849 10.6789 4.18489 10.6789 4.18488 10.6789C4.18486 10.6789 4.18484 10.6789 4.18482 10.6789C4.18476 10.6788 4.18471 10.6787 4.18465 10.6787C4.18465 10.6787 4.18464 10.6787 4.18464 10.6787L4.18445 10.6785L4.183 10.677L4.17726 10.6713L4.15477 10.6488Z" fill="black" stroke="black"/>
</svg>
