<svg width="14" height="15" viewBox="0 0 14 15" fill="" xmlns="http://www.w3.org/2000/svg">
<path d="M13.4998 13.4805H0.499992C0.367386 13.4805 0.240211 13.5296 0.146444 13.6171C0.0526777 13.7047 0 13.8234 0 13.9471C0 14.0709 0.0526777 14.1896 0.146444 14.2771C0.240211 14.3646 0.367386 14.4138 0.499992 14.4138H13.4998C13.6324 14.4138 13.7596 14.3646 13.8533 14.2771C13.9471 14.1896 13.9998 14.0709 13.9998 13.9471C13.9998 13.8234 13.9471 13.7047 13.8533 13.6171C13.7596 13.5296 13.6324 13.4805 13.4998 13.4805Z" fill=""/>
<path d="M7.47468 11.4805L12.7796 6.69994C12.8615 6.61374 12.9043 6.50287 12.8994 6.38947C12.8946 6.27608 12.8424 6.16851 12.7534 6.08826C12.6643 6.00802 12.545 5.96101 12.4191 5.95663C12.2933 5.95225 12.1703 5.99082 12.0746 6.06464L7.97467 9.75479V0.450567C7.97467 0.33107 7.922 0.216466 7.82823 0.131968C7.73446 0.0474705 7.60729 0 7.47468 0C7.34208 0 7.2149 0.0474705 7.12113 0.131968C7.02737 0.216466 6.97469 0.33107 6.97469 0.450567V9.75479L2.87976 6.06464C2.83494 6.01747 2.77978 5.97916 2.71775 5.95212C2.65571 5.92508 2.58815 5.90988 2.51929 5.90748C2.45043 5.90508 2.38177 5.91554 2.31761 5.93819C2.25344 5.96084 2.19517 5.9952 2.14644 6.03911C2.09772 6.08302 2.05959 6.13554 2.03445 6.19336C2.00932 6.25117 1.99771 6.31305 2.00037 6.3751C2.00303 6.43715 2.0199 6.49804 2.04991 6.55394C2.07992 6.60984 2.12243 6.65955 2.17477 6.69994L7.47468 11.4805Z" fill=""/>
</svg>
