<svg width="40" height="40" viewBox="0 0 40 40" fill="none" xmlns="http://www.w3.org/2000/svg">
<circle cx="20" cy="20" r="20" fill="#F8F8F8"/>
<path d="M25.6652 13.3538C24.164 11.8467 22.1279 11 20.0049 11C17.8819 11 15.8458 11.8467 14.3446 13.3538C12.8434 14.861 12 16.9051 12 19.0365C12 21.1679 12.8434 23.212 14.3446 24.7191L19.3162 29.7198C19.4039 29.8086 19.5083 29.8791 19.6232 29.9272C19.7382 29.9752 19.8615 30 19.986 30C20.1106 30 20.2339 29.9752 20.3488 29.9272C20.4638 29.8791 20.5681 29.8086 20.6558 29.7198L25.6652 24.6718C27.1602 23.1709 28 21.1353 28 19.0128C28 16.8903 27.1602 14.8547 25.6652 13.3538ZM24.3162 23.3174L20.0049 27.6646L15.6936 23.3174C14.8419 22.4615 14.262 21.3713 14.0273 20.1846C13.7926 18.998 13.9136 17.7681 14.3751 16.6504C14.8365 15.5328 15.6176 14.5775 16.6197 13.9055C17.6218 13.2335 18.7998 12.8748 20.0049 12.8748C21.21 12.8748 22.388 13.2335 23.3901 13.9055C24.3922 14.5775 25.1733 15.5328 25.6347 16.6504C26.0962 17.7681 26.2172 18.998 25.9825 20.1846C25.7478 21.3713 25.1679 22.4615 24.3162 23.3174ZM17.1747 16.1289C16.4132 16.8958 15.9855 17.9346 15.9855 19.0175C15.9855 20.1005 16.4132 21.1393 17.1747 21.9062C17.7405 22.4752 18.4611 22.8638 19.2461 23.0232C20.031 23.1827 20.8454 23.1058 21.587 22.8023C22.3286 22.4988 22.9645 21.9822 23.4148 21.3173C23.865 20.6524 24.1097 19.8689 24.1181 19.0649C24.1223 18.5281 24.0193 17.9958 23.8151 17.4997C23.611 17.0035 23.3098 16.5535 22.9294 16.1762C22.5555 15.7922 22.1097 15.4863 21.6175 15.276C21.1254 15.0656 20.5967 14.9551 20.0619 14.9507C19.527 14.9463 18.9966 15.0481 18.5011 15.2503C18.0056 15.4525 17.5549 15.7511 17.1747 16.1289ZM21.5992 20.5613C21.2417 20.9257 20.7692 21.1541 20.2626 21.2075C19.7559 21.2609 19.2465 21.1359 18.8214 20.8539C18.3964 20.5719 18.0821 20.1505 17.9323 19.6616C17.7825 19.1728 17.8065 18.6469 18.0002 18.1738C18.1938 17.7007 18.5452 17.3099 18.9941 17.0681C19.4431 16.8264 19.9617 16.7486 20.4614 16.8483C20.9611 16.9479 21.4108 17.2187 21.7337 17.6144C22.0565 18.0101 22.2324 18.5061 22.2313 19.0175C22.2176 19.6022 21.9733 20.1574 21.5521 20.5613H21.5992Z" fill="#202020"/>
</svg>
