<svg width="40" height="40" viewBox="0 0 40 40" fill="none" xmlns="http://www.w3.org/2000/svg">
<circle cx="20" cy="20" r="20" fill="#F8F8F8"/>
<path d="M25.4054 29.6889C25.2186 29.6884 25.0324 29.6679 24.8499 29.6278C21.3758 28.9092 18.1752 27.2242 15.6165 24.7667C13.1125 22.3039 11.3758 19.1682 10.6165 15.7389C10.527 15.3116 10.549 14.8683 10.6803 14.4519C10.8117 14.0355 11.048 13.6598 11.3665 13.3612L13.5888 11.2223C13.7023 11.1149 13.8371 11.0327 13.9846 10.981C14.132 10.9294 14.2886 10.9093 14.4443 10.9223C14.6057 10.9391 14.7615 10.9911 14.9007 11.0746C15.0399 11.1581 15.1591 11.2711 15.2499 11.4056L18.0277 15.5112C18.1318 15.6705 18.1821 15.859 18.1711 16.049C18.1601 16.239 18.0884 16.4205 17.9665 16.5667L16.5721 18.2334C17.1275 19.4625 17.914 20.5734 18.8888 21.5056C19.8573 22.4716 21.002 23.2429 22.261 23.7778L23.9888 22.4056C24.1339 22.2909 24.3105 22.2231 24.495 22.2112C24.6796 22.1993 24.8635 22.2439 25.0221 22.3389L29.2165 25.0501C29.3605 25.136 29.4831 25.2534 29.5752 25.3935C29.6674 25.5335 29.7266 25.6926 29.7485 25.8588C29.7704 26.025 29.7544 26.194 29.7018 26.3532C29.6491 26.5124 29.5611 26.6575 29.4443 26.7778L27.2777 28.9223C27.0315 29.1672 26.7394 29.361 26.4181 29.4926C26.0968 29.6242 25.7526 29.6909 25.4054 29.6889ZM14.3554 12.0223L12.1332 14.1612C11.954 14.3281 11.8214 14.5389 11.7483 14.7727C11.6753 15.0064 11.6643 15.2552 11.7165 15.4945C12.4225 18.7124 14.0453 21.6569 16.3888 23.9723C18.7967 26.2843 21.8086 27.8692 25.0777 28.5445C25.3251 28.5962 25.5815 28.5858 25.8239 28.514C26.0663 28.4423 26.2871 28.3115 26.4665 28.1334L28.6332 25.9889L24.5832 23.3723L22.7277 24.8501C22.6566 24.9063 22.5729 24.9443 22.4838 24.9607C22.3947 24.9772 22.303 24.9716 22.2165 24.9445C20.6758 24.3768 19.2796 23.4757 18.1277 22.3056C16.9362 21.193 16.0113 19.8256 15.4221 18.3056C15.3972 18.2136 15.3963 18.1167 15.4197 18.0243C15.443 17.9318 15.4898 17.847 15.5554 17.7778L17.0554 15.9834L14.3554 12.0223Z" fill="#202020"/>
</svg>
