<svg width="19" height="18" viewBox="0 0 19 18" fill="" xmlns="http://www.w3.org/2000/svg">
<path fill-rule="evenodd" clip-rule="evenodd" d="M16.8135 2.08555C16.3722 1.62104 15.8483 1.25261 15.2716 1.00134C14.695 0.750056 14.077 0.620847 13.4529 0.621094C12.8289 0.621341 12.211 0.751038 11.6345 1.00277C11.0581 1.25451 10.5344 1.62335 10.0935 2.08821L9.51785 2.70149L8.94704 2.08954L8.94333 2.08563C8.50225 1.62134 7.97861 1.25303 7.40231 1.00176C6.82601 0.750483 6.20834 0.621153 5.58456 0.621153C4.96077 0.621153 4.3431 0.750483 3.7668 1.00176C3.1905 1.25303 2.66687 1.62134 2.22579 2.08563L1.96936 2.35555C1.07857 3.29324 0.578125 4.565 0.578125 5.89108C0.578125 7.21716 1.07857 8.48893 1.96936 9.42661L8.73711 16.5505L9.50138 17.3934L9.5196 17.3741L9.53938 17.395L10.2554 16.5997L17.0699 9.42649C17.9594 8.48807 18.4589 7.21658 18.4589 5.89096C18.4589 4.56535 17.9594 3.29386 17.0699 2.35544L16.8135 2.08555ZM16.23 8.54262L9.5196 15.6064L2.809 8.54262C2.14091 7.83936 1.76558 6.88554 1.76558 5.89098C1.76558 4.89643 2.14091 3.9426 2.809 3.23934L3.06546 2.96942C3.73323 2.26651 4.63882 1.87145 5.58318 1.87108C6.52755 1.87071 7.43341 2.26505 8.10168 2.96743L9.51529 4.48255L10.9356 2.96942C11.2664 2.6212 11.6592 2.34497 12.0914 2.15652C12.5236 1.96806 12.9869 1.87106 13.4547 1.87106C13.9225 1.87106 14.3858 1.96806 14.818 2.15652C15.2502 2.34497 15.643 2.6212 15.9738 2.96942L16.2302 3.2393C16.8973 3.94314 17.2719 4.89678 17.2719 5.891C17.2718 6.88521 16.8972 7.83883 16.23 8.54262Z"  fill="red"/>
</svg>
