<svg width="19" height="17" viewBox="0 0 19 17" fill="" xmlns="http://www.w3.org/2000/svg">
<path fill-rule="evenodd" clip-rule="evenodd" d="M15.2716 1.22074C15.8483 1.45568 16.3722 1.80014 16.8135 2.23445L17.0699 2.48677C17.9594 3.36416 18.4589 4.55295 18.4589 5.79235C18.4589 7.03174 17.9594 8.22053 17.0699 9.09792L10.2554 15.8046L9.53938 16.5481L9.5196 16.5287L9.50138 16.5466L8.73711 15.7586L1.96936 9.09803C1.07857 8.22134 0.578125 7.03229 0.578125 5.79246C0.578125 4.55263 1.07857 3.36358 1.96936 2.48688L2.22579 2.23452C2.66687 1.80042 3.1905 1.45607 3.7668 1.22114C4.3431 0.986208 4.96077 0.86529 5.58456 0.86529C6.20834 0.86529 6.82601 0.986208 7.40231 1.22114C7.97861 1.45607 8.50225 1.80042 8.94333 2.23452L8.94704 2.23817L9.51785 2.81032L10.0935 2.23693C10.5344 1.8023 11.0581 1.45745 11.6345 1.22209C12.211 0.986727 12.8289 0.865465 13.4529 0.865234C14.077 0.865004 14.695 0.985809 15.2716 1.22074Z" fill="" stroke=""/>
</svg>
