<svg width="81" height="55" viewBox="0 0 81 55" fill="" xmlns="http://www.w3.org/2000/svg">
<path d="M0 52.0568L7.40084 45.5966H0.0683656V42.0445H14.0649V44.9696L6.33858 51.4125H14.1333V54.9996H0V52.0568Z" fill=""/>
<path d="M31.5055 45.1786H23.3852V46.8329H31.2484V50.0544H23.3852V51.8304H31.6254V54.9996H18.7769V42.0445H31.5055V45.1786Z" fill=""/>
<path d="M40.757 55H36.2515V42.0447H40.9626L47.8324 49.2887V42.0447H52.338V55H47.9008L40.757 47.5296V55Z" fill=""/>
<path d="M57.2725 42.0447H61.898V55H57.2725V42.0447Z" fill=""/>
<path d="M66.1812 45.6139V42.0445H81V45.6139H75.8948V54.9996H71.2862V45.6139H66.1812Z" fill=""/>
<path d="M70.284 29.2664H40.5688L40.5604 29.2616L40.5521 29.2664H10.8369L18.2699 16.1724L40.5602 29.2613L40.5604 29.2616L40.5609 29.2613L62.8512 16.1724L70.284 29.2664ZM23.8509 6.29431H57.1305L59.1894 9.96474L40.5489 20.8956L21.8189 9.89288L23.8509 6.29431ZM80.9922 16.2744L77.389 9.91078H66.3952L60.7259 3.8147e-06H20.2384L14.6207 9.87827H3.59651L0.00537109 16.1926H11.0372C7.36814 22.6609 3.69906 29.1292 0.030107 35.5973C27.0014 35.6015 53.9726 35.6056 80.944 35.6096C77.2931 29.1647 73.6421 22.7194 69.991 16.2744H80.9922Z" fill=""/>
</svg>
