<svg width="471" height="247" viewBox="0 0 471 247" fill="none" xmlns="http://www.w3.org/2000/svg">
<path d="M0 444.852L62.3132 389.646H0.575622V359.292H118.423V384.288L53.3693 439.345H118.999V469.999H0V444.852Z" fill="white"/>
<path d="M265.269 386.074H196.898V400.211H263.104V427.74H196.898V442.916H266.279V469.999H158.097V359.292H265.269V386.074Z" fill="white"/>
<path d="M343.164 469.999H305.229V359.291H344.896L402.738 421.194V359.291H440.673V469.999H403.314L343.164 406.162V469.999Z" fill="white"/>
<path d="M482.22 359.292H521.166V470H482.22V359.292Z" fill="white"/>
<path d="M557.229 389.794V359.292H682V389.794H639.015V469.999H600.212V389.794H557.229Z" fill="white"/>
<path d="M591.785 250.093H341.59L341.519 250.052L341.449 250.093H91.2543L153.838 138.2L341.517 250.049L341.519 250.052L341.523 250.049L529.202 138.2L591.785 250.093ZM200.829 53.7873H481.035L498.37 85.1526L341.422 178.561L183.72 84.5386L200.829 53.7873ZM681.945 139.072L651.607 84.6915H559.042L511.308 0H170.412L123.113 84.4137H30.2918L0.0552948 138.372H92.9408C62.048 193.646 31.1553 248.92 0.263565 304.193C227.355 304.229 454.447 304.264 681.539 304.298C650.799 249.224 620.059 194.147 589.318 139.072H681.945Z" fill="white"/>
</svg>
