<svg width="744" height="108" viewBox="0 0 744 108" fill="none" xmlns="http://www.w3.org/2000/svg">
<path opacity="0.13" d="M72.778 105L72.0615 105.698L72.3559 106H72.778V105ZM115.924 105V106H118.305L116.638 104.3L115.924 105ZM59.806 47.754L59.1385 47.0094L58.36 47.7074L59.0919 48.454L59.806 47.754ZM112.963 0.0959975L113.631 0.840567L115.576 -0.904002H112.963V0.0959975ZM72.073 0.0959975V-0.904002H71.6867L71.4007 -0.64425L72.073 0.0959975ZM25.966 41.973H24.966V44.2322L26.6383 42.7132L25.966 41.973ZM25.966 0.0959975H26.966V-0.904002H25.966V0.0959975ZM-7.592 0.0959975V-0.904002H-8.592V0.0959975H-7.592ZM-7.592 105H-8.592V106H-7.592V105ZM25.966 105V106H26.966V105H25.966ZM25.966 56.919L26.6825 56.2214L24.966 54.4584V56.919H25.966ZM72.778 106H115.924V104H72.778V106ZM116.638 104.3L60.5201 47.054L59.0919 48.454L115.21 105.7L116.638 104.3ZM60.4736 48.4986L113.631 0.840567L112.295 -0.648572L59.1385 47.0094L60.4736 48.4986ZM112.963 -0.904002H72.073V1.096H112.963V-0.904002ZM71.4007 -0.64425L25.2937 41.2327L26.6383 42.7132L72.7453 0.836245L71.4007 -0.64425ZM26.966 41.973V0.0959975H24.966V41.973H26.966ZM25.966 -0.904002H-7.592V1.096H25.966V-0.904002ZM-8.592 0.0959975V105H-6.592V0.0959975H-8.592ZM-7.592 106H25.966V104H-7.592V106ZM26.966 105V56.919H24.966V105H26.966ZM25.2495 57.6166L72.0615 105.698L73.4945 104.302L26.6825 56.2214L25.2495 57.6166ZM165.791 71.301L165.626 70.3146L165.623 70.3152L165.791 71.301ZM181.583 68.199H182.583V66.9018L181.328 67.2319L181.583 68.199ZM182.429 94.707L183.374 94.3819L182.815 92.7544L181.678 94.0464L182.429 94.707ZM221.627 105V106H222.627V105H221.627ZM221.627 82.017H222.627V81.017H221.627V82.017ZM119.966 51.42H118.966V52.42H119.966V51.42ZM152.114 51.42V52.42H153.114V51.42H152.114ZM175.802 55.227L175.879 56.224L175.888 56.2233L175.898 56.2223L175.802 55.227ZM153.947 56.919L153.869 55.922L153.865 55.9223L153.947 56.919ZM161.843 87.08C157.717 87.08 154.955 86.2856 153.251 85.0929C151.596 83.9344 150.858 82.3458 150.858 80.466H148.858C148.858 82.9572 149.882 85.1756 152.104 86.7314C154.278 88.2529 157.508 89.08 161.843 89.08V87.08ZM150.858 80.466V80.184H148.858V80.466H150.858ZM150.858 80.184C150.858 79.0698 151.056 78.2183 151.466 77.5154C151.876 76.8128 152.55 76.1689 153.654 75.5609C155.916 74.3147 159.736 73.3475 165.959 72.2868L165.623 70.3152C159.438 71.3695 155.29 72.3763 152.689 73.8091C151.36 74.5406 150.377 75.4124 149.739 76.5076C149.1 77.6024 148.858 78.8307 148.858 80.184H150.858ZM165.955 72.2874C172.728 71.1585 179.111 69.8834 181.837 69.1661L181.328 67.2319C178.696 67.9245 172.389 69.1875 165.626 70.3146L165.955 72.2874ZM180.583 68.199V73.134H182.583V68.199H180.583ZM180.583 73.134C180.583 78.5965 175.722 87.08 161.843 87.08V89.08C176.727 89.08 182.583 79.7975 182.583 73.134H180.583ZM181.483 95.0321C183.091 99.7106 187.013 106 195.683 106V104C188.279 104 184.868 98.7274 183.374 94.3819L181.483 95.0321ZM195.683 106H221.627V104H195.683V106ZM222.627 105V82.017H220.627V105H222.627ZM221.627 81.017H217.961V83.017H221.627V81.017ZM217.961 81.017C215.848 81.017 214.987 80.5967 214.563 80.0686C214.086 79.4751 213.885 78.4445 213.885 76.518H211.885C211.885 78.3985 212.036 80.1174 213.004 81.3217C214.025 82.5913 215.703 83.017 217.961 83.017V81.017ZM213.885 76.518V51.42H211.885V76.518H213.885ZM213.885 51.42C213.885 45.6991 213.103 38.6302 206.872 33.05C200.69 27.514 189.348 23.63 168.752 23.63V25.63C189.186 25.63 199.911 29.501 205.538 34.5399C211.115 39.5348 211.885 45.8608 211.885 51.42H213.885ZM168.752 23.63H164.24V25.63H168.752V23.63ZM164.24 23.63C143.89 23.63 132.525 28.022 126.251 33.7809C119.95 39.565 118.966 46.5577 118.966 51.279H120.966C120.966 46.8353 121.885 40.5035 127.604 35.2543C133.35 29.98 144.122 25.63 164.24 25.63V23.63ZM118.966 51.279V51.42H120.966V51.279H118.966ZM119.966 52.42H152.114V50.42H119.966V52.42ZM153.114 51.42C153.114 50.2508 153.381 48.6149 155.029 47.2339C156.725 45.8136 160.04 44.524 166.496 44.524V42.524C159.838 42.524 155.963 43.8429 153.745 45.7009C151.481 47.5981 151.114 49.9102 151.114 51.42H153.114ZM166.496 44.524H166.919V42.524H166.496V44.524ZM166.919 44.524C173.444 44.524 176.861 45.3764 178.632 46.5009C179.486 47.0431 179.951 47.6446 180.217 48.2621C180.491 48.8985 180.583 49.6174 180.583 50.433H182.583C182.583 49.4861 182.48 48.4601 182.054 47.4706C181.619 46.4622 180.877 45.5568 179.704 44.8124C177.422 43.3636 173.507 42.524 166.919 42.524V44.524ZM180.583 50.433V50.574H182.583V50.433H180.583ZM180.583 50.574C180.583 51.8114 180.281 52.5337 179.687 53.0349C179.027 53.591 177.837 54.0254 175.705 54.2316L175.898 56.2223C178.137 56.0056 179.838 55.5235 180.976 54.5639C182.179 53.5493 182.583 52.1566 182.583 50.574H180.583ZM175.724 54.23L153.869 55.922L154.024 57.916L175.879 56.224L175.724 54.23ZM153.865 55.9223C140.081 57.0533 130.863 59.5002 125.081 63.5934C119.198 67.7583 116.992 73.535 116.992 80.889H118.992C118.992 74.002 121.016 68.9217 126.236 65.2258C131.558 61.4582 140.317 59.0407 154.028 57.9156L153.865 55.9223ZM116.992 80.889V81.453H118.992V80.889H116.992ZM116.992 81.453C116.992 88.6788 119.554 95.2446 125.002 99.9906C130.435 104.725 138.628 107.551 149.717 107.551V105.551C138.951 105.551 131.28 102.808 126.315 98.4826C121.364 94.1694 118.992 88.1862 118.992 81.453H116.992ZM149.717 107.551H152.114V105.551H149.717V107.551ZM152.114 107.551C171.372 107.551 179.945 99.0425 183.179 95.3676L181.678 94.0464C178.708 97.4215 170.643 105.551 152.114 105.551V107.551ZM257.269 105H256.269V106H257.269V105ZM289.276 105V106H290.276V105H289.276ZM289.276 48.6V47.6H288.276V48.6H289.276ZM319.168 48.6V49.6H320.168V48.6H319.168ZM319.168 26.463H320.168V25.463H319.168V26.463ZM227.377 26.463V25.463H226.377V26.463H227.377ZM227.377 48.6H226.377V49.6H227.377V48.6ZM257.269 48.6H258.269V47.6H257.269V48.6ZM257.269 106H289.276V104H257.269V106ZM290.276 105V48.6H288.276V105H290.276ZM289.276 49.6H319.168V47.6H289.276V49.6ZM320.168 48.6V26.463H318.168V48.6H320.168ZM319.168 25.463H227.377V27.463H319.168V25.463ZM226.377 26.463V48.6H228.377V26.463H226.377ZM227.377 49.6H257.269V47.6H227.377V49.6ZM256.269 48.6V105H258.269V48.6H256.269ZM377.015 71.301L376.851 70.3146L376.847 70.3152L377.015 71.301ZM392.807 68.199H393.807V66.9018L392.553 67.2319L392.807 68.199ZM393.653 94.707L394.599 94.3819L394.039 92.7544L392.903 94.0464L393.653 94.707ZM432.851 105V106H433.851V105H432.851ZM432.851 82.017H433.851V81.017H432.851V82.017ZM331.19 51.42H330.19V52.42H331.19V51.42ZM363.338 51.42V52.42H364.338V51.42H363.338ZM387.026 55.227L387.103 56.224L387.113 56.2233L387.123 56.2223L387.026 55.227ZM365.171 56.919L365.094 55.922L365.089 55.9223L365.171 56.919ZM373.067 87.08C368.942 87.08 366.18 86.2856 364.476 85.0929C362.821 83.9344 362.082 82.3458 362.082 80.466H360.082C360.082 82.9572 361.106 85.1756 363.329 86.7314C365.502 88.2529 368.733 89.08 373.067 89.08V87.08ZM362.082 80.466V80.184H360.082V80.466H362.082ZM362.082 80.184C362.082 79.0698 362.281 78.2183 362.691 77.5154C363.101 76.8128 363.774 76.1689 364.878 75.5609C367.141 74.3147 370.96 73.3475 377.183 72.2868L376.847 70.3152C370.662 71.3695 366.515 72.3763 363.913 73.8091C362.585 74.5406 361.602 75.4124 360.963 76.5076C360.324 77.6024 360.082 78.8307 360.082 80.184H362.082ZM377.18 72.2874C383.953 71.1585 390.336 69.8834 393.062 69.1661L392.553 67.2319C389.921 67.9245 383.614 69.1875 376.851 70.3146L377.18 72.2874ZM391.807 68.199V73.134H393.807V68.199H391.807ZM391.807 73.134C391.807 78.5965 386.946 87.08 373.067 87.08V89.08C387.952 89.08 393.807 79.7975 393.807 73.134H391.807ZM392.708 95.0321C394.316 99.7106 398.237 106 406.907 106V104C399.503 104 396.093 98.7274 394.599 94.3819L392.708 95.0321ZM406.907 106H432.851V104H406.907V106ZM433.851 105V82.017H431.851V105H433.851ZM432.851 81.017H429.185V83.017H432.851V81.017ZM429.185 81.017C427.072 81.017 426.212 80.5967 425.787 80.0686C425.31 79.4751 425.109 78.4445 425.109 76.518H423.109C423.109 78.3985 423.261 80.1174 424.229 81.3217C425.249 82.5913 426.927 83.017 429.185 83.017V81.017ZM425.109 76.518V51.42H423.109V76.518H425.109ZM425.109 51.42C425.109 45.6991 424.328 38.6302 418.096 33.05C411.915 27.514 400.572 23.63 379.976 23.63V25.63C400.411 25.63 411.135 29.501 416.762 34.5399C422.34 39.5348 423.109 45.8608 423.109 51.42H425.109ZM379.976 23.63H375.464V25.63H379.976V23.63ZM375.464 23.63C355.115 23.63 343.75 28.022 337.476 33.7809C331.174 39.565 330.19 46.5577 330.19 51.279H332.19C332.19 46.8353 333.11 40.5035 338.828 35.2543C344.574 29.98 355.347 25.63 375.464 25.63V23.63ZM330.19 51.279V51.42H332.19V51.279H330.19ZM331.19 52.42H363.338V50.42H331.19V52.42ZM364.338 51.42C364.338 50.2508 364.606 48.6149 366.254 47.2339C367.949 45.8136 371.265 44.524 377.72 44.524V42.524C371.063 42.524 367.187 43.8429 364.97 45.7009C362.705 47.5981 362.338 49.9102 362.338 51.42H364.338ZM377.72 44.524H378.143V42.524H377.72V44.524ZM378.143 44.524C384.668 44.524 388.085 45.3764 389.857 46.5009C390.711 47.0431 391.176 47.6446 391.442 48.2621C391.716 48.8985 391.807 49.6174 391.807 50.433H393.807C393.807 49.4861 393.705 48.4601 393.278 47.4706C392.844 46.4622 392.101 45.5568 390.929 44.8124C388.646 43.3636 384.731 42.524 378.143 42.524V44.524ZM391.807 50.433V50.574H393.807V50.433H391.807ZM391.807 50.574C391.807 51.8114 391.506 52.5337 390.911 53.0349C390.252 53.591 389.061 54.0254 386.93 54.2316L387.123 56.2223C389.362 56.0056 391.062 55.5235 392.2 54.5639C393.404 53.5493 393.807 52.1566 393.807 50.574H391.807ZM386.949 54.23L365.094 55.922L365.248 57.916L387.103 56.224L386.949 54.23ZM365.089 55.9223C351.305 57.0533 342.087 59.5002 336.305 63.5934C330.422 67.7583 328.216 73.535 328.216 80.889H330.216C330.216 74.002 332.24 68.9217 337.461 65.2258C342.783 61.4582 351.542 59.0407 365.253 57.9156L365.089 55.9223ZM328.216 80.889V81.453H330.216V80.889H328.216ZM328.216 81.453C328.216 88.6788 330.779 95.2446 336.226 99.9906C341.66 104.725 349.852 107.551 360.941 107.551V105.551C350.175 105.551 342.505 102.808 337.54 98.4826C332.589 94.1694 330.216 88.1862 330.216 81.453H328.216ZM360.941 107.551H363.338V105.551H360.941V107.551ZM363.338 107.551C382.597 107.551 391.17 99.0425 394.404 95.3676L392.903 94.0464C389.932 97.4215 381.867 105.551 363.338 105.551V107.551ZM513 105H512V106H513V105ZM545.007 105V106H546.007V105H545.007ZM545.007 26.463H546.007V25.463H545.007V26.463ZM455.754 26.463V25.463H454.754V26.463H455.754ZM454.062 74.685L453.09 74.4475L453.089 74.4546L453.087 74.4616L454.062 74.685ZM442.359 83.145V82.145H441.359V83.145H442.359ZM442.359 105H441.359V106H442.359V105ZM482.403 87.516L483.339 87.8671L483.34 87.8651L482.403 87.516ZM485.787 48.6V47.6H484.787V48.6H485.787ZM513 48.6H514V47.6H513V48.6ZM513 106H545.007V104H513V106ZM546.007 105V26.463H544.007V105H546.007ZM545.007 25.463H455.754V27.463H545.007V25.463ZM454.754 26.463C454.754 61.3682 454.605 68.2526 453.09 74.4475L455.033 74.9225C456.621 68.4274 456.754 61.2118 456.754 26.463H454.754ZM453.087 74.4616C452.343 77.71 451.163 79.575 449.725 80.653C448.281 81.7362 446.419 82.145 444.051 82.145V84.145C446.618 84.145 448.986 83.7078 450.925 82.253C452.872 80.793 454.23 78.428 455.037 74.9084L453.087 74.4616ZM444.051 82.145H442.359V84.145H444.051V82.145ZM441.359 83.145V105H443.359V83.145H441.359ZM442.359 106H453.498V104H442.359V106ZM453.498 106C464.359 106 471.096 103.569 475.506 99.996C479.906 96.4316 481.85 91.8369 483.339 87.8671L481.466 87.1649C479.994 91.0911 478.202 95.2384 474.247 98.442C470.304 101.637 464.068 104 453.498 104V106ZM483.34 87.8651C484.728 84.1401 485.583 79.2022 486.096 72.7909C486.611 66.3695 486.787 58.4059 486.787 48.6H484.787C484.787 58.3931 484.61 66.292 484.103 72.6311C483.594 78.9803 482.757 83.7009 481.466 87.1669L483.34 87.8651ZM485.787 49.6H513V47.6H485.787V49.6ZM512 48.6V105H514V48.6H512ZM618.587 108.115C642.103 108.115 655.263 101.574 662.512 93.0458C669.738 84.5463 670.911 74.28 670.911 67.212H668.911C668.911 74.103 667.757 83.7882 660.989 91.7504C654.244 99.6844 641.741 106.115 618.587 106.115V108.115ZM670.911 67.212V64.956H668.911V67.212H670.911ZM670.911 64.956C670.911 58.0344 669.81 47.5976 662.646 38.8879C655.453 30.1428 642.325 23.348 618.728 23.348V25.348C641.942 25.348 654.406 32.0187 661.101 40.1584C667.826 48.3334 668.911 58.2006 668.911 64.956H670.911ZM618.728 23.348H613.934V25.348H618.728V23.348ZM613.934 23.348C591.099 23.348 577.951 30.1497 570.536 38.894C563.149 47.6063 561.61 58.0659 561.61 65.097H563.61C563.61 58.3101 565.102 48.3952 572.062 40.1875C578.994 32.0118 591.508 25.348 613.934 25.348V23.348ZM561.61 65.097V67.071H563.61V65.097H561.61ZM561.61 67.071C561.61 74.3148 563.185 84.6059 570.617 93.0922C578.072 101.604 591.254 108.115 614.075 108.115V106.115C591.635 106.115 579.084 99.7247 572.122 91.7745C565.137 83.7991 563.61 74.0682 563.61 67.071H561.61ZM614.075 108.115H618.587V106.115H614.075V108.115ZM615.626 83.978C607.713 83.978 603.099 81.1988 600.425 77.5965C597.712 73.9407 596.886 69.2848 596.886 65.379H594.886C594.886 69.5102 595.751 74.6538 598.819 78.7883C601.927 82.9762 607.183 85.978 615.626 85.978V83.978ZM596.886 65.379C596.886 61.3282 597.714 56.7889 600.415 53.2814C603.078 49.8227 607.69 47.203 615.626 47.203V45.203C607.206 45.203 601.948 48.0118 598.83 52.0613C595.75 56.0621 594.886 61.1108 594.886 65.379H596.886ZM615.626 47.203H616.895V45.203H615.626V47.203ZM616.895 47.203C624.537 47.203 629.161 49.8156 631.902 53.2907C634.676 56.8085 635.635 61.3538 635.635 65.379H637.635C637.635 61.0852 636.619 56.0425 633.472 52.0521C630.291 48.0189 625.044 45.203 616.895 45.203V47.203ZM635.635 65.379C635.635 69.187 634.679 73.8502 631.889 77.5361C629.136 81.1743 624.51 83.978 616.895 83.978V85.978C625.072 85.978 630.316 82.9302 633.484 78.7429C636.617 74.6033 637.635 69.467 637.635 65.379H635.635ZM616.895 83.978H615.626V85.978H616.895V83.978ZM687.595 105H686.595V106H687.595V105ZM719.602 105V106H720.602V105H719.602ZM719.602 48.6V47.6H718.602V48.6H719.602ZM760.351 48.6V49.6H761.351V48.6H760.351ZM760.351 26.463H761.351V25.463H760.351V26.463ZM687.595 26.463V25.463H686.595V26.463H687.595ZM687.595 106H719.602V104H687.595V106ZM720.602 105V48.6H718.602V105H720.602ZM719.602 49.6H760.351V47.6H719.602V49.6ZM761.351 48.6V26.463H759.351V48.6H761.351ZM760.351 25.463H687.595V27.463H760.351V25.463ZM686.595 26.463V105H688.595V26.463H686.595Z" fill="url(#paint0_linear_1472_2835)"/>
<defs>
<linearGradient id="paint0_linear_1472_2835" x1="-8.78856" y1="65.3295" x2="759.195" y2="73.3345" gradientUnits="userSpaceOnUse">
<stop stop-color="#202020"/>
<stop offset="0.930771" stop-color="#202020" stop-opacity="0.978958"/>
<stop offset="0.989099" stop-color="#202020" stop-opacity="0.541131"/>
<stop offset="0.993089" stop-color="#202020" stop-opacity="0.0836982"/>
<stop offset="1" stop-color="#202020" stop-opacity="0"/>
</linearGradient>
</defs>
</svg>
