<svg width="102" height="937" viewBox="0 0 102 937" fill="none" xmlns="http://www.w3.org/2000/svg">
<path opacity="0.13" d="M99 838.824L99.6976 839.54L100 839.246V838.824H99ZM99 786.192H100V783.811L98.3 785.478L99 786.192ZM29.168 854.648L28.4234 855.316L29.1214 856.094L29.868 855.362L29.168 854.648ZM-28.968 789.804L-28.2234 789.136L-29.968 787.191V789.804H-28.968ZM-28.968 839.684H-29.968V840.07L-29.7083 840.356L-28.968 839.684ZM22.116 895.928V896.928H24.3752L22.8562 895.256L22.116 895.928ZM-28.968 895.928V894.928H-29.968V895.928H-28.968ZM-28.968 936.864H-29.968V937.864H-28.968V936.864ZM99 936.864V937.864H100V936.864H99ZM99 895.928H100V894.928H99V895.928ZM40.348 895.928L39.6504 895.212L37.8874 896.928H40.348V895.928ZM100 838.824V786.192H98V838.824H100ZM98.3 785.478L28.468 853.934L29.868 855.362L99.7 786.906L98.3 785.478ZM29.9126 853.98L-28.2234 789.136L-29.7126 790.472L28.4234 855.316L29.9126 853.98ZM-29.968 789.804L-29.968 839.684H-27.968V789.804H-29.968ZM-29.7083 840.356L21.3757 896.6L22.8562 895.256L-28.2278 839.012L-29.7083 840.356ZM22.116 894.928H-28.968V896.928H22.116V894.928ZM-29.968 895.928L-29.968 936.864H-27.968V895.928H-29.968ZM-28.968 937.864H99V935.864H-28.968V937.864ZM100 936.864V895.928H98V936.864H100ZM99 894.928H40.348V896.928H99V894.928ZM41.0456 896.644L99.6976 839.54L98.3024 838.107L39.6504 895.212L41.0456 896.644ZM57.892 725.362L56.9056 725.526L56.9062 725.53L57.892 725.362ZM54.108 706.098V705.098H52.8108L53.1409 706.352L54.108 706.098ZM86.444 705.066L86.1189 704.12L84.4914 704.68L85.7834 705.816L86.444 705.066ZM99 657.25H100V656.25H99V657.25ZM70.964 657.25V656.25H69.964V657.25H70.964ZM33.64 781.262V782.262H34.64V781.262H33.64ZM33.64 742.046H34.64V741.046H33.64V742.046ZM38.284 713.15L39.281 713.073L39.2803 713.063L39.2794 713.053L38.284 713.15ZM40.348 739.81L39.351 739.887L39.3513 739.892L40.348 739.81ZM77.36 730.178C77.36 735.233 76.3873 738.654 74.8963 740.784C73.4394 742.866 71.4323 743.798 69.072 743.798V745.798C72.0437 745.798 74.6806 744.58 76.5347 741.931C78.3547 739.331 79.36 735.443 79.36 730.178H77.36ZM69.072 743.798H68.728V745.798H69.072V743.798ZM68.728 743.798C67.3426 743.798 66.2624 743.551 65.3619 743.026C64.4617 742.501 63.6512 741.645 62.8959 740.273C61.3552 737.476 60.171 732.781 58.8778 725.194L56.9062 725.53C58.193 733.079 59.4168 738.102 61.1441 741.238C62.0228 742.834 63.0613 743.999 64.3541 744.753C65.6466 745.507 67.1034 745.798 68.728 745.798V743.798ZM58.8784 725.197C57.5015 716.936 55.9474 709.158 55.0751 705.843L53.1409 706.352C53.9885 709.573 55.5304 717.275 56.9056 725.526L58.8784 725.197ZM54.108 707.098H60.128V705.098H54.108V707.098ZM60.128 707.098C66.9235 707.098 77.36 713.137 77.36 730.178H79.36C79.36 712.131 68.1245 705.098 60.128 705.098V707.098ZM86.7691 706.011C92.4396 704.062 100 699.335 100 688.898H98C98 698.069 91.4564 702.285 86.1189 704.12L86.7691 706.011ZM100 688.898V657.25H98V688.898H100ZM99 656.25H70.964V658.25H99V656.25ZM69.964 657.25V661.722H71.964V657.25H69.964ZM69.964 661.722C69.964 664.315 69.4507 665.454 68.7249 666.038C67.9339 666.674 66.601 666.914 64.256 666.914V668.914C66.555 668.914 68.5761 668.724 69.9781 667.597C71.4453 666.417 71.964 664.46 71.964 661.722H69.964ZM64.256 666.914H33.64V668.914H64.256V666.914ZM33.64 666.914C26.6791 666.914 18.1377 667.866 11.395 675.395C4.69651 682.875 -0.0400085 696.643 -0.0400085 721.75H1.95999C1.95999 696.804 6.68347 683.654 12.8849 676.729C19.0423 669.854 26.8409 668.914 33.64 668.914V666.914ZM-0.0400085 721.75V727.254H1.95999V721.75H-0.0400085ZM-0.0400085 727.254C-0.0400085 752.052 5.313 765.85 12.2848 773.445C19.2818 781.068 27.7392 782.262 33.468 782.262V780.262C28.0168 780.262 20.2202 779.133 13.7582 772.093C7.27098 765.026 1.95999 751.82 1.95999 727.254H-0.0400085ZM33.468 782.262H33.64V780.262H33.468V782.262ZM34.64 781.262V742.046H32.64V781.262H34.64ZM33.64 741.046C32.1763 741.046 30.1064 740.709 28.365 738.63C26.5843 736.505 25.008 732.399 25.008 724.502H23.008C23.008 732.601 24.6137 737.267 26.832 739.914C29.0896 742.609 31.8357 743.046 33.64 743.046V741.046ZM25.008 724.502V723.986H23.008V724.502H25.008ZM25.008 723.986C25.008 716.019 26.0464 711.796 27.4538 709.579C28.1374 708.502 28.9045 707.905 29.7008 707.562C30.5159 707.21 31.4267 707.098 32.436 707.098V705.098C31.2953 705.098 30.0776 705.222 28.9093 705.725C27.7222 706.236 26.6511 707.112 25.7652 708.507C24.0336 711.235 23.008 715.956 23.008 723.986H25.008ZM32.436 707.098H32.608V705.098H32.436V707.098ZM32.608 707.098C34.1554 707.098 35.1102 707.477 35.778 708.269C36.5007 709.126 37.0359 710.634 37.2887 713.246L39.2794 713.053C39.0161 710.333 38.4333 708.315 37.307 706.98C36.1258 705.579 34.5006 705.098 32.608 705.098V707.098ZM37.287 713.227L39.351 739.887L41.345 739.733L39.281 713.073L37.287 713.227ZM39.3513 739.892C40.7303 756.698 43.712 767.893 48.6693 774.895C53.6983 781.999 60.6685 784.67 69.588 784.67V782.67C61.1355 782.67 54.8617 780.181 50.3017 773.739C45.67 767.197 42.7177 756.461 41.3447 739.728L39.3513 739.892ZM69.588 784.67H70.276V782.67H69.588V784.67ZM70.276 784.67C79.0363 784.67 86.9816 781.565 92.7235 774.974C98.4533 768.397 101.892 758.461 101.892 744.97H99.892C99.892 758.138 96.5367 767.552 91.2155 773.66C85.9064 779.755 78.5437 782.67 70.276 782.67V784.67ZM101.892 744.97V742.046H99.892V744.97H101.892ZM101.892 742.046C101.892 718.633 91.5545 708.231 87.1046 704.315L85.7834 705.816C89.9335 709.469 99.892 719.363 99.892 742.046H101.892ZM99 613.771V614.771H100V613.771H99ZM99 574.727H100V573.727H99V574.727ZM30.2 574.727H29.2V575.727H30.2V574.727ZM30.2 538.263H31.2V537.263H30.2V538.263ZM3.19599 538.263V537.263H2.19599V538.263H3.19599ZM3.19599 650.235H2.19599V651.235H3.19599V650.235ZM30.2 650.235V651.235H31.2V650.235H30.2ZM30.2 613.771V612.771H29.2V613.771H30.2ZM100 613.771V574.727H98V613.771H100ZM99 573.727H30.2V575.727H99V573.727ZM31.2 574.727V538.263H29.2V574.727H31.2ZM30.2 537.263H3.19599V539.263H30.2V537.263ZM2.19599 538.263L2.19599 650.235H4.19599L4.19599 538.263H2.19599ZM3.19599 651.235H30.2V649.235H3.19599V651.235ZM31.2 650.235V613.771H29.2V650.235H31.2ZM30.2 614.771H99V612.771H30.2V614.771ZM57.892 467.698L56.9056 467.862L56.9062 467.866L57.892 467.698ZM54.108 448.434V447.434H52.8108L53.1409 448.688L54.108 448.434ZM86.444 447.402L86.1189 446.456L84.4914 447.016L85.7834 448.152L86.444 447.402ZM99 399.586H100V398.586H99V399.586ZM70.964 399.586V398.586H69.964V399.586H70.964ZM33.64 523.598V524.598H34.64V523.598H33.64ZM33.64 484.382H34.64V483.382H33.64V484.382ZM38.284 455.486L39.281 455.409L39.2803 455.399L39.2794 455.389L38.284 455.486ZM40.348 482.146L39.351 482.223L39.3513 482.228L40.348 482.146ZM77.36 472.514C77.36 477.569 76.3873 480.99 74.8963 483.12C73.4394 485.202 71.4323 486.134 69.072 486.134V488.134C72.0437 488.134 74.6806 486.916 76.5347 484.267C78.3547 481.667 79.36 477.778 79.36 472.514H77.36ZM69.072 486.134H68.728V488.134H69.072V486.134ZM68.728 486.134C67.3426 486.134 66.2624 485.887 65.3619 485.362C64.4617 484.836 63.6512 483.981 62.8959 482.609C61.3552 479.812 60.171 475.117 58.8778 467.53L56.9062 467.866C58.193 475.415 59.4168 480.438 61.1441 483.574C62.0228 485.17 63.0613 486.335 64.3541 487.089C65.6466 487.843 67.1034 488.134 68.728 488.134V486.134ZM58.8784 467.533C57.5015 459.272 55.9474 451.494 55.0751 448.179L53.1409 448.688C53.9885 451.909 55.5304 459.611 56.9056 467.862L58.8784 467.533ZM54.108 449.434H60.128V447.434H54.108V449.434ZM60.128 449.434C66.9235 449.434 77.36 455.472 77.36 472.514H79.36C79.36 454.467 68.1245 447.434 60.128 447.434V449.434ZM86.7691 448.347C92.4396 446.398 100 441.671 100 431.234H98C98 440.405 91.4564 444.621 86.1189 446.456L86.7691 448.347ZM100 431.234V399.586H98V431.234H100ZM99 398.586H70.964V400.586H99V398.586ZM69.964 399.586V404.058H71.964V399.586H69.964ZM69.964 404.058C69.964 406.651 69.4507 407.79 68.7249 408.374C67.9339 409.01 66.601 409.25 64.256 409.25V411.25C66.555 411.25 68.5761 411.06 69.9781 409.933C71.4453 408.753 71.964 406.796 71.964 404.058H69.964ZM64.256 409.25H33.64V411.25H64.256V409.25ZM33.64 409.25C26.6791 409.25 18.1377 410.202 11.395 417.731C4.69651 425.211 -0.0400085 438.979 -0.0400085 464.086H1.95999C1.95999 439.14 6.68347 425.99 12.8849 419.065C19.0423 412.19 26.8409 411.25 33.64 411.25V409.25ZM-0.0400085 464.086V469.59H1.95999V464.086H-0.0400085ZM-0.0400085 469.59C-0.0400085 494.388 5.313 508.186 12.2848 515.781C19.2818 523.404 27.7392 524.598 33.468 524.598V522.598C28.0168 522.598 20.2202 521.469 13.7582 514.429C7.27098 507.361 1.95999 494.156 1.95999 469.59H-0.0400085ZM33.468 524.598H33.64V522.598H33.468V524.598ZM34.64 523.598V484.382H32.64V523.598H34.64ZM33.64 483.382C32.1763 483.382 30.1064 483.044 28.365 480.966C26.5843 478.841 25.008 474.735 25.008 466.838H23.008C23.008 474.937 24.6137 479.603 26.832 482.25C29.0896 484.945 31.8357 485.382 33.64 485.382V483.382ZM25.008 466.838V466.322H23.008V466.838H25.008ZM25.008 466.322C25.008 458.355 26.0464 454.132 27.4538 451.915C28.1374 450.838 28.9045 450.241 29.7008 449.898C30.5159 449.546 31.4267 449.434 32.436 449.434V447.434C31.2953 447.434 30.0776 447.558 28.9093 448.061C27.7222 448.572 26.6511 449.448 25.7652 450.843C24.0336 453.571 23.008 458.292 23.008 466.322H25.008ZM32.436 449.434H32.608V447.434H32.436V449.434ZM32.608 449.434C34.1554 449.434 35.1102 449.813 35.778 450.605C36.5007 451.462 37.0359 452.97 37.2887 455.582L39.2794 455.389C39.0161 452.669 38.4333 450.651 37.307 449.316C36.1258 447.915 34.5006 447.434 32.608 447.434V449.434ZM37.287 455.563L39.351 482.223L41.345 482.069L39.281 455.409L37.287 455.563ZM39.3513 482.228C40.7303 499.034 43.712 510.229 48.6693 517.231C53.6983 524.335 60.6685 527.006 69.588 527.006V525.006C61.1355 525.006 54.8617 522.517 50.3017 516.075C45.67 509.533 42.7177 498.797 41.3447 482.064L39.3513 482.228ZM69.588 527.006H70.276V525.006H69.588V527.006ZM70.276 527.006C79.0363 527.006 86.9816 523.901 92.7235 517.31C98.4533 510.733 101.892 500.797 101.892 487.306H99.892C99.892 500.474 96.5367 509.888 91.2155 515.996C85.9064 522.09 78.5437 525.006 70.276 525.006V527.006ZM101.892 487.306V484.382H99.892V487.306H101.892ZM101.892 484.382C101.892 460.969 91.5545 450.567 87.1046 446.651L85.7834 448.152C89.9335 451.805 99.892 461.698 99.892 484.382H101.892ZM99 301.816V302.816H100V301.816H99ZM99 262.772H100V261.772H99V262.772ZM3.19599 262.772V261.772H2.19599V262.772H3.19599ZM3.19599 371.648H2.19599V372.648H3.19599L3.19599 371.648ZM62.02 373.712L61.7825 374.683L61.7896 374.685L61.7966 374.687L62.02 373.712ZM72.34 387.988H71.34V388.988H72.34V387.988ZM99 387.988V388.988H100V387.988H99ZM77.672 339.14L78.0231 338.203L78.0211 338.203L77.672 339.14ZM30.2 335.012H29.2V336.012H30.2V335.012ZM30.2 301.816V300.816H29.2V301.816H30.2ZM100 301.816V262.772H98V301.816H100ZM99 261.772H3.19599V263.772H99V261.772ZM2.19599 262.772L2.19599 371.648H4.19599V262.772H2.19599ZM3.19599 372.648C45.7582 372.648 54.1926 372.828 61.7825 374.683L62.2575 372.74C54.3674 370.812 45.6018 370.648 3.19599 370.648L3.19599 372.648ZM61.7966 374.687C65.789 375.601 68.119 377.06 69.476 378.87C70.8382 380.686 71.34 383.013 71.34 385.924H73.34C73.34 382.814 72.8098 379.982 71.076 377.67C69.337 375.351 66.507 373.714 62.2434 372.737L61.7966 374.687ZM71.34 385.924V387.988H73.34V385.924H71.34ZM72.34 388.988H99V386.988H72.34V388.988ZM100 387.988V374.4H98V387.988H100ZM100 374.4C100 361.182 97.0424 353.02 92.725 347.691C88.4166 342.373 82.8609 340.018 78.0231 338.203L77.3209 340.076C82.1151 341.874 87.2234 344.077 91.171 348.95C95.1096 353.812 98 361.473 98 374.4H100ZM78.0211 338.203C73.5056 336.52 67.506 335.479 59.6919 334.854C51.8678 334.227 42.1604 334.012 30.2 334.012V336.012C42.1476 336.012 51.7902 336.227 59.5321 336.847C67.284 337.468 73.0664 338.491 77.3229 340.077L78.0211 338.203ZM31.2 335.012V301.816H29.2V335.012H31.2ZM30.2 302.816H99V300.816H30.2V302.816ZM102.58 173.015C102.58 144.368 94.6126 128.387 84.2752 119.599C73.966 110.835 61.5065 109.407 52.904 109.407V111.407C61.3295 111.407 73.208 112.816 82.9798 121.123C92.7234 129.406 100.58 144.73 100.58 173.015H102.58ZM52.904 109.407H50.152V111.407H52.904V109.407ZM50.152 109.407C41.7269 109.407 29.0581 110.747 18.4922 119.438C7.89103 128.158 -0.384003 144.099 -0.384003 172.843H1.616C1.616 144.482 9.76696 129.205 19.7627 120.983C29.7939 112.732 41.8931 111.407 50.152 111.407V109.407ZM-0.384003 172.843V178.691H1.616V172.843H-0.384003ZM-0.384003 178.691C-0.384003 206.501 7.89796 222.47 18.5023 231.462C29.0745 240.426 41.7739 242.299 50.324 242.299V240.299C42.0181 240.299 29.8634 238.473 19.7957 229.936C9.76003 221.427 1.616 206.092 1.616 178.691H-0.384003ZM50.324 242.299H52.732V240.299H50.324V242.299ZM52.732 242.299C61.5413 242.299 74.0334 240.383 84.3293 231.365C94.6506 222.326 102.58 206.315 102.58 178.519H100.58C100.58 205.934 92.7714 221.313 83.0117 229.861C73.2266 238.431 61.2947 240.299 52.732 240.299V242.299ZM102.58 178.519V173.015H100.58V178.519H102.58ZM73.576 176.627C73.576 186.337 70.1613 192.037 65.7026 195.346C61.1904 198.694 55.4573 199.707 50.668 199.707V201.707C55.6827 201.707 61.9036 200.655 66.8944 196.952C71.9387 193.208 75.576 186.868 75.576 176.627H73.576ZM50.668 199.707C45.7027 199.707 40.1094 198.692 35.7766 195.356C31.4924 192.058 28.276 186.361 28.276 176.627H26.276C26.276 186.845 29.6815 193.188 34.5564 196.941C39.3826 200.657 45.4853 201.707 50.668 201.707V199.707ZM28.276 176.627V175.079H26.276V176.627H28.276ZM28.276 175.079C28.276 165.7 31.4853 159.992 35.7858 156.6C40.129 153.174 45.7283 151.999 50.668 151.999V149.999C45.4597 149.999 39.363 151.231 34.5472 155.03C29.6886 158.862 26.276 165.193 26.276 175.079H28.276ZM50.668 151.999C55.344 151.999 61.0845 153.172 65.6306 156.612C70.1291 160.016 73.576 165.728 73.576 175.079H75.576C75.576 165.166 71.8849 158.837 66.8374 155.017C61.8375 151.234 55.624 149.999 50.668 149.999V151.999ZM73.576 175.079V176.627H75.576V175.079H73.576ZM99 88.8341V89.8341H100V88.8341H99ZM99 49.7901H100V48.7901H99V49.7901ZM30.2 49.7901H29.2V50.7901H30.2V49.7901ZM30.2 0.0820923H31.2V-0.917908H30.2V0.0820923ZM3.19599 0.0820923V-0.917908H2.19599V0.0820923H3.19599ZM3.19599 88.8341H2.19599V89.8341H3.19599V88.8341ZM100 88.8341V49.7901H98V88.8341H100ZM99 48.7901H30.2V50.7901H99V48.7901ZM31.2 49.7901V0.0820923H29.2V49.7901H31.2ZM30.2 -0.917908H3.19599V1.08209H30.2V-0.917908ZM2.19599 0.0820923L2.19599 88.8341H4.19599V0.0820923H2.19599ZM3.19599 89.8341H99V87.8341H3.19599V89.8341Z" fill="url(#paint0_linear_428_774)"/>
<defs>
<linearGradient id="paint0_linear_428_774" x1="50.409" y1="938.272" x2="60.2483" y2="-2.11574" gradientUnits="userSpaceOnUse">
<stop stop-color="#202020"/>
<stop offset="0.930771" stop-color="#202020" stop-opacity="0.978958"/>
<stop offset="0.989099" stop-color="#202020" stop-opacity="0.541131"/>
<stop offset="0.993089" stop-color="#202020" stop-opacity="0.0836982"/>
<stop offset="1" stop-color="#202020" stop-opacity="0"/>
</linearGradient>
</defs>
</svg>
