<svg width="26" height="26" viewBox="0 0 26 26" fill="" xmlns="http://www.w3.org/2000/svg">
<path d="M23.9688 0.8125H2.03125C1.70813 0.812876 1.39836 0.941401 1.16988 1.16988C0.941401 1.39836 0.812876 1.70813 0.8125 2.03125V10.1562H2.4375V2.4375H23.5625V23.5625H2.4375V15.4375H0.8125V23.9688C0.812876 24.2919 0.941401 24.6016 1.16988 24.8301C1.39836 25.0586 1.70813 25.1871 2.03125 25.1875H23.9688C24.2919 25.1871 24.6016 25.0586 24.8301 24.8301C25.0586 24.6016 25.1871 24.2919 25.1875 23.9688V2.03125C25.1871 1.70813 25.0586 1.39836 24.8301 1.16988C24.6016 0.941401 24.2919 0.812876 23.9688 0.8125Z" fill=""/>
<path d="M10.6324 18.4494L11.7815 19.5984L18.6178 12.7621L11.7815 5.92578L10.6324 7.07476L15.5073 11.9497H0.8125V13.5747H15.5072L10.6324 18.4494Z" fill=""/>
</svg>
