<svg width="37" height="38" viewBox="0 0 37 38" fill="" xmlns="http://www.w3.org/2000/svg">
<path d="M8.0767 33.153C7.77068 33.153 7.47719 33.0315 7.26081 32.8151C7.04442 32.5987 6.92285 32.3052 6.92285 31.9992V6.61459C6.92289 6.41408 6.97517 6.21705 7.07454 6.0429C7.17392 5.86876 7.31696 5.72351 7.48957 5.62149C7.66217 5.51946 7.85839 5.46417 8.05887 5.46108C8.25935 5.45798 8.45718 5.50717 8.63285 5.60382L31.7098 18.2961C31.8907 18.3957 32.0415 18.5421 32.1466 18.7199C32.2517 18.8976 32.3071 19.1004 32.3071 19.3069C32.3071 19.5134 32.2517 19.7161 32.1466 19.8939C32.0415 20.0717 31.8907 20.2181 31.7098 20.3177L8.63285 33.01C8.46249 33.1038 8.27118 33.153 8.0767 33.153Z" fill=""/>
</svg>
