<svg width="275" height="55" viewBox="0 0 275 55" fill="none" xmlns="http://www.w3.org/2000/svg">
<path d="M188.6 35.6992C187.586 35.6992 186.571 35.8443 185.556 35.9894C184.396 36.1346 183.382 36.2797 182.512 36.4248C180.482 36.8602 179.033 37.4406 178.163 38.4565C177.293 39.4723 177.003 40.4881 177.003 41.504C177.003 42.6649 177.438 43.6807 178.308 44.2612C179.178 44.9868 180.482 45.277 182.222 45.277C183.382 45.277 184.686 44.9868 185.701 44.5514C186.861 44.1161 187.876 43.3905 188.6 42.6649V35.6992ZM197.153 23.3641C197.878 25.1055 198.168 27.1372 198.168 29.4591V52.0976H189.325L188.89 49.4855C187.876 50.5013 186.571 51.372 184.976 51.9525C183.382 52.533 181.642 52.8232 179.758 52.8232C178.163 52.8232 176.713 52.533 175.119 52.0976C173.669 51.5172 172.364 50.7916 171.205 49.9208C170.045 48.905 169.175 47.7441 168.45 46.438C167.725 44.9868 167.435 43.5356 167.435 41.6491C167.435 39.9076 167.87 38.3113 168.595 37.0053C169.32 35.6992 170.335 34.5383 171.494 33.6675C172.654 32.7968 174.104 31.9261 175.698 31.3456C177.293 30.7652 178.888 30.3298 180.772 30.0396C181.932 29.7493 183.382 29.6042 184.831 29.4591C186.281 29.314 187.441 29.1689 188.455 29.1689V28.0079C188.455 26.5567 188.021 25.3958 187.006 24.5251C185.991 23.6544 184.831 23.219 183.527 23.219C182.657 23.219 181.642 23.5092 180.337 23.9446C179.033 24.3799 177.873 25.2507 176.713 26.4116L170.19 21.9129C171.06 20.752 172.219 19.7361 173.379 19.0106C174.539 18.285 175.843 17.5594 177.003 17.124C178.308 16.6887 179.468 16.3984 180.627 16.2533C181.787 16.1082 182.947 15.9631 183.962 15.9631C185.991 15.9631 187.876 16.2533 189.615 16.6887C191.355 17.2691 192.804 17.9947 193.964 19.1557C195.559 20.1715 196.574 21.6227 197.153 23.3641ZM114.958 43.3905H101.621V3.33773H92.0532V43.5356H78.7164V3.33773H68.8587V52.0976H124.815V3.33773H114.958V43.3905ZM155.548 41.3588C155.548 39.0369 154.099 37.7309 151.344 37.7309H141.632V44.9868H151.344C152.794 44.9868 153.809 44.6966 154.533 43.971C155.258 43.3905 155.548 42.5198 155.548 41.3588ZM141.632 30.7652H150.184C151.779 30.7652 152.794 30.3298 153.374 29.4591C153.954 28.5884 154.244 27.8628 154.244 26.9921C154.244 26.1214 153.954 25.3958 153.374 24.8153C152.794 24.2348 151.779 23.7995 150.184 23.7995H141.632V30.7652ZM163.956 36.4248C164.971 37.7309 165.406 39.3272 165.406 41.3588C165.406 43.2454 165.116 44.8417 164.391 46.1478C163.666 47.4538 162.797 48.6148 161.637 49.4855C160.477 50.3562 159.027 51.0818 157.433 51.5171C155.838 51.9525 154.099 52.2427 152.359 52.2427H132.499V16.8338H151.779C155.548 16.8338 158.448 17.7045 160.622 19.3008C162.797 20.8971 163.811 23.219 163.811 26.1214C163.811 29.4591 162.507 31.9261 159.897 33.3773C161.637 34.248 163.086 35.2639 163.956 36.4248ZM227.161 42.3747C225.712 44.1161 223.682 44.9868 220.928 44.9868C218.173 44.9868 215.999 44.1161 214.694 42.3747C213.39 40.6332 212.665 38.3113 212.665 35.6992C212.665 33.0871 213.39 30.9103 214.694 29.0237C216.144 27.2823 218.173 26.4116 220.928 26.4116C223.682 26.4116 225.857 27.2823 227.161 29.0237C228.611 30.7652 229.336 32.942 229.336 35.6992C229.191 38.3113 228.466 40.4881 227.161 42.3747ZM234.41 23.3641C233.105 21.9129 231.365 20.752 229.336 19.8813C227.306 19.0106 225.132 18.5752 222.522 18.5752C221.508 18.5752 220.493 18.7203 219.478 18.8654C218.463 19.0106 217.449 19.3008 216.579 19.7361C215.709 20.1715 214.984 20.4617 214.259 21.0422C213.535 21.4776 213.1 22.058 212.665 22.6385C213.245 19.591 214.259 17.2691 215.709 15.8179C217.159 14.3668 219.043 13.496 221.363 13.2058L225.132 12.7704C226.871 12.6253 228.466 12.19 229.626 11.7546C230.93 11.3193 231.945 10.7388 232.67 9.86807C233.54 8.99736 234.12 8.12665 234.41 6.9657C234.844 5.80475 235.134 4.49868 235.279 2.90237L227.596 1.59631C227.306 3.04749 226.871 4.06332 226.292 4.49868C225.712 4.93404 224.697 5.22427 223.537 5.36939L220.638 5.65963C217.159 5.94987 214.404 6.82058 212.085 8.56201C209.765 10.1583 207.881 12.3351 206.576 14.8021C205.127 17.2691 204.257 20.0264 203.677 22.9288C203.097 25.8311 202.807 28.8786 202.807 31.781C202.807 34.8285 203.097 37.7309 203.822 40.343C204.547 42.9551 205.561 45.1319 207.011 47.0185C208.461 48.905 210.345 50.3562 212.52 51.372C214.694 52.3879 217.449 52.9683 220.493 52.9683C223.392 52.9683 225.857 52.533 228.176 51.5171C230.351 50.5013 232.235 49.1952 233.83 47.5989C235.279 46.0026 236.439 44.1161 237.309 41.9393C238.034 39.7625 238.469 37.5858 238.469 35.2638C238.469 32.9419 238.179 30.6201 237.454 28.5884C236.729 26.5567 235.714 24.8153 234.41 23.3641ZM251.226 30.1847H265.287C265.142 27.8628 264.273 26.1214 262.968 24.9604C261.518 23.7995 260.069 23.219 258.619 23.219C257.749 23.219 257.024 23.3641 256.154 23.6544C255.285 23.9446 254.56 24.3799 253.98 25.1055C253.255 25.686 252.675 26.4116 252.24 27.2823C251.661 28.153 251.371 29.1689 251.226 30.1847ZM267.897 40.1979L275 44.5514C272.97 47.5989 270.651 49.7757 268.042 51.0818C265.432 52.3879 262.243 52.9683 258.764 52.9683C256.444 52.9683 254.27 52.533 252.095 51.8074C250.066 51.0818 248.181 49.9208 246.587 48.4697C244.992 46.8734 243.687 44.9868 242.818 42.6649C241.948 40.343 241.368 37.5857 241.368 34.5383C241.368 31.6359 241.803 28.8786 242.673 26.7018C243.542 24.3799 244.847 22.4934 246.297 20.8971C247.891 19.3008 249.631 18.1398 251.805 17.2691C253.835 16.3984 256.154 15.9631 258.474 15.9631C263.403 15.9631 267.317 17.7045 270.361 21.1873C273.405 24.6702 274.855 29.8945 275 36.8602H250.936C251.226 39.9076 252.095 41.9393 253.69 43.2454C255.285 44.5514 257.024 45.277 259.054 45.277C260.793 45.277 262.243 44.9868 263.693 44.4063C264.997 43.6807 266.447 42.2295 267.897 40.1979ZM50.1581 24.8153C47.2588 25.686 44.2145 26.2665 41.1703 26.2665C38.8508 26.2665 35.0817 25.9763 29.8629 25.3958C24.7891 24.8153 21.165 24.6702 18.9905 24.6702C15.6563 24.6702 12.3221 25.1055 9.13284 25.9763C7.82815 26.4116 6.37849 26.847 4.6389 27.7177V25.8311C4.6389 25.5409 4.6389 25.2507 4.78387 24.9604C4.92883 23.6544 5.21877 21.6227 5.79863 18.8654C5.94359 18.5752 5.94359 18.285 6.08856 17.9947C6.37849 16.9789 6.81339 15.9631 7.24829 15.0923C7.97312 13.0607 8.98787 11.3193 10.2926 9.72295C12.1771 7.25594 14.4966 5.36939 17.3959 3.91821C20.2952 2.46702 23.6294 1.74142 27.3985 1.74142C31.3126 1.74142 34.6468 2.46702 37.4012 3.91821C40.3005 5.36939 42.6199 7.40105 44.5045 9.72295C46.389 12.19 47.8387 14.9472 48.8535 17.9947C49.5783 20.1715 49.8682 22.4934 50.1581 24.8153ZM50.1581 29.1689C50.1581 29.8945 50.0132 30.6201 50.0132 31.3456C49.5783 34.248 48.5635 37.7309 48.5635 37.7309C48.2736 38.7467 47.8387 39.7625 47.2588 40.6332C46.534 42.0844 45.6642 43.5356 44.5045 44.8417C42.6199 47.3087 40.1555 49.1952 37.4012 50.7916C34.5018 52.2427 31.1676 53.1135 27.3985 53.1135C23.6294 53.1135 20.2952 52.3879 17.3959 50.9367C14.4966 49.3404 12.1771 47.4538 10.2926 44.9868C8.40801 42.5198 6.95835 39.7625 6.08856 36.715C5.5087 34.5383 5.0738 32.5066 4.78387 30.3298C5.21877 30.1847 5.5087 30.0396 5.79863 30.0396C6.66842 29.7493 7.39325 29.6042 7.68318 29.4591C9.42277 29.0237 11.5973 28.7335 14.2066 28.7335C16.816 28.7335 19.5704 28.8786 22.3247 29.1689C28.5582 29.8945 32.9072 30.1847 35.2267 30.1847C37.8361 30.1847 39.8656 30.0396 41.4602 29.8945C43.0548 29.6042 44.7944 29.314 46.389 28.7335C47.6937 28.2982 48.9984 27.8628 50.1581 27.2823V29.1689ZM27.3985 0C16.2362 0 6.66842 6.67546 2.46442 16.2533C0.869794 19.7361 0 23.5092 0 27.5726C0 42.6649 12.3221 55 27.3985 55C37.6911 55 46.679 49.3404 51.4628 40.7784C53.2024 37.5858 54.3622 34.1029 54.6521 30.3298C54.797 29.314 54.797 28.4433 54.797 27.4274C54.797 12.3351 42.6199 0 27.3985 0Z" fill="white"/>
</svg>
