<svg width="64" height="65" viewBox="0 0 64 65" fill="none" xmlns="http://www.w3.org/2000/svg">
<path d="M30.5969 9.20605H33.4039C33.6535 9.20605 33.7782 9.37763 33.7782 9.72077V55.0154C33.7782 55.3585 33.6535 55.5301 33.4039 55.5301H30.5969C30.3474 55.5301 30.2227 55.3585 30.2227 55.0154V9.72077C30.2227 9.37763 30.3474 9.20605 30.5969 9.20605Z" fill="black"/>
<path d="M11.1621 30.5869H52.8366C53.1673 30.5869 53.3327 30.7119 53.3327 30.962V33.7752C53.3327 34.0253 53.1673 34.1503 52.8366 34.1503H11.1621C10.8314 34.1503 10.666 34.0253 10.666 33.7752V30.962C10.666 30.7119 10.8314 30.5869 11.1621 30.5869Z" fill="black"/>
</svg>
