<svg width="24" height="24" viewBox="0 0 24 24" fill="none" xmlns="http://www.w3.org/2000/svg">
<path d="M21.7514 20.689L16.0874 15.025C17.4485 13.391 18.1273 11.2951 17.9824 9.1734C17.8376 7.0517 16.8804 5.06752 15.3099 3.63361C13.7394 2.19971 11.6765 1.42648 9.5504 1.47479C7.42431 1.5231 5.39869 2.38922 3.89493 3.89298C2.39118 5.39674 1.52505 7.42236 1.47674 9.54844C1.42844 11.6745 2.20166 13.7374 3.63557 15.3079C5.06947 16.8784 7.05366 17.8356 9.17536 17.9805C11.2971 18.1253 13.3929 17.4466 15.0269 16.0855L20.6909 21.7495L21.7514 20.689ZM3.00143 9.74948C3.00143 8.41445 3.39731 7.10941 4.13901 5.99938C4.88071 4.88935 5.93492 4.02418 7.16832 3.51329C8.40172 3.0024 9.75892 2.86873 11.0683 3.12918C12.3777 3.38963 13.5804 4.0325 14.5244 4.97651C15.4684 5.92051 16.1113 7.12324 16.3717 8.43262C16.6322 9.74199 16.4985 11.0992 15.9876 12.3326C15.4767 13.566 14.6116 14.6202 13.5015 15.3619C12.3915 16.1036 11.0865 16.4995 9.75143 16.4995C7.96183 16.4975 6.24609 15.7857 4.98065 14.5203C3.71521 13.2548 3.00341 11.5391 3.00143 9.74948Z" fill="white"/>
<path d="M9.58147 6.54199H10.1339C10.183 6.54199 10.2076 6.56655 10.2076 6.61565V13.0978C10.2076 13.1469 10.183 13.1715 10.1339 13.1715H9.58147C9.53237 13.1715 9.50781 13.1469 9.50781 13.0978V6.61565C9.50781 6.56655 9.53237 6.54199 9.58147 6.54199Z" fill="white"/>
<path d="M6.76311 9.50684H12.9506C12.9997 9.50684 13.0243 9.53139 13.0243 9.5805V10.133C13.0243 10.1821 12.9997 10.2066 12.9506 10.2066H6.76311C6.71401 10.2066 6.68945 10.1821 6.68945 10.133V9.5805C6.68945 9.53139 6.71401 9.50684 6.76311 9.50684Z" fill="white"/>
</svg>
